<svg width="24px" height="24px" viewBox="0 0 24 24" fill="none" xmlns="http://www.w3.org/2000/svg">
<path d="M6.05001 16.64C5.92142 16.6399 5.79502 16.6067 5.68294 16.5437C5.57086 16.4806 5.47688 16.3898 5.41001 16.28C4.67587 15.0696 4.24636 13.6992 4.15832 12.2864C4.07029 10.8735 4.32637 9.46035 4.90459 8.16821C5.4828 6.87608 6.36589 5.74352 7.47807 4.86774C8.59025 3.99195 9.89831 3.39908 11.29 3.14C11.3908 3.11178 11.4964 3.10497 11.6 3.12002C11.7036 3.13506 11.8029 3.17162 11.8915 3.22734C11.9801 3.28307 12.056 3.35672 12.1145 3.44357C12.1729 3.53042 12.2125 3.62853 12.2307 3.73161C12.249 3.83468 12.2454 3.94043 12.2203 4.04205C12.1952 4.14367 12.1491 4.23891 12.085 4.32165C12.0209 4.40439 11.9402 4.47279 11.848 4.52245C11.7559 4.57211 11.6544 4.60193 11.55 4.61C10.181 4.86227 8.91425 5.50546 7.90279 6.46192C6.89132 7.41838 6.17836 8.6472 5.85001 10C5.39685 11.8692 5.69866 13.8418 6.69001 15.49C6.78404 15.6571 6.81052 15.8538 6.76403 16.0398C6.71753 16.2257 6.60159 16.3868 6.44001 16.49C6.32898 16.5797 6.19253 16.6322 6.05001 16.64Z" fill="black"/>
<path d="M12.89 20.49C11.4959 20.4816 10.1241 20.1387 8.89001 19.49C8.72325 19.3933 8.60015 19.236 8.54627 19.0509C8.49239 18.8658 8.51187 18.667 8.60065 18.4959C8.68943 18.3248 8.84071 18.1944 9.02307 18.1319C9.20543 18.0693 9.40488 18.0794 9.58001 18.16C11.0173 18.9009 12.6599 19.1436 14.25 18.85C15.7836 18.565 17.1838 17.7916 18.2418 16.6454C19.2997 15.4991 19.9586 14.0415 20.12 12.49C20.1427 12.2917 20.2424 12.1103 20.3977 11.9849C20.553 11.8596 20.7514 11.8003 20.95 11.82C21.1475 11.8402 21.3289 11.9379 21.4544 12.0916C21.58 12.2453 21.6396 12.4425 21.62 12.64C21.4203 14.5147 20.6218 16.2751 19.3429 17.6603C18.064 19.0454 16.3728 19.9816 14.52 20.33C13.9821 20.4286 13.4368 20.4822 12.89 20.49Z" fill="black"/>
<path d="M5.14001 21C4.95089 20.9949 4.76478 20.9515 4.5929 20.8724C4.42103 20.7933 4.26696 20.6803 4.14001 20.54C3.94308 20.3419 3.80944 20.0898 3.75603 19.8156C3.70262 19.5414 3.73185 19.2575 3.84001 19L5.37001 15.58C5.45356 15.4025 5.60333 15.2648 5.78721 15.1965C5.97109 15.1281 6.17443 15.1345 6.35364 15.2143C6.53286 15.2941 6.67367 15.4409 6.74589 15.6233C6.81812 15.8057 6.81601 16.0091 6.74001 16.19L5.29001 19.45L9.00001 18.14C9.0933 18.1032 9.19302 18.0856 9.29327 18.088C9.39352 18.0905 9.49225 18.113 9.58364 18.1543C9.67503 18.1955 9.75722 18.2547 9.82534 18.3283C9.89346 18.4019 9.94613 18.4884 9.98024 18.5827C10.0143 18.677 10.0292 18.7772 10.0239 18.8773C10.0186 18.9774 9.99332 19.0755 9.94948 19.1657C9.90564 19.2559 9.84416 19.3363 9.76867 19.4024C9.69319 19.4684 9.60523 19.5186 9.51001 19.55L5.62001 20.92C5.46612 20.9753 5.30351 21.0024 5.14001 21Z" fill="black"/>
<path d="M20.14 7.55H14.36C14.1611 7.55 13.9703 7.47099 13.8297 7.33033C13.689 7.18968 13.61 6.99892 13.61 6.8C13.61 6.60109 13.689 6.41033 13.8297 6.26967C13.9703 6.12902 14.1611 6.05 14.36 6.05H20.14C20.3389 6.05 20.5297 6.12902 20.6703 6.26967C20.811 6.41033 20.89 6.60109 20.89 6.8C20.89 6.99892 20.811 7.18968 20.6703 7.33033C20.5297 7.47099 20.3389 7.55 20.14 7.55Z" fill="black"/>
<path d="M17.25 10.44C17.0511 10.44 16.8603 10.361 16.7197 10.2203C16.579 10.0797 16.5 9.88891 16.5 9.69V3.91C16.5 3.71109 16.579 3.52032 16.7197 3.37967C16.8603 3.23902 17.0511 3.16 17.25 3.16C17.4489 3.16 17.6397 3.23902 17.7803 3.37967C17.921 3.52032 18 3.71109 18 3.91V9.69C18 9.88891 17.921 10.0797 17.7803 10.2203C17.6397 10.361 17.4489 10.44 17.25 10.44Z" fill="black"/>
</svg>
